<?xml version="1.0" standalone="no"?>
<!DOCTYPE svg PUBLIC "-//W3C//DTD SVG 20010904//EN"
 "http://www.w3.org/TR/2001/REC-SVG-20010904/DTD/svg10.dtd">
<svg version="1.0" xmlns="http://www.w3.org/2000/svg"
 width="792.000000pt" height="792.000000pt" viewBox="0 0 792.000000 792.000000"
 preserveAspectRatio="xMidYMid meet">
<metadata>
Created by potrace 1.11, written by Peter Selinger 2001-2013
</metadata>
<g transform="translate(0.000000,792.000000) scale(0.100000,-0.100000)"
fill="#000000" stroke="none">
<path d="M1660 7849 c-146 -10 -225 -23 -350 -57 -279 -77 -511 -214 -726
-427 -246 -244 -404 -556 -460 -905 -15 -96 -17 -313 -18 -2430 -1 -2170 1
-2402 19 -2535 9 -70 49 -226 80 -314 29 -82 109 -246 149 -304 14 -21 26 -40
26 -43 0 -3 28 -42 62 -86 85 -113 237 -260 349 -340 194 -139 455 -250 659
-283 25 -4 54 -9 65 -12 72 -15 455 -18 2511 -17 2449 1 2365 -1 2567 50 87
22 121 33 202 63 53 21 172 77 186 88 8 7 19 13 22 13 12 0 119 71 198 131 90
68 226 202 283 279 22 30 44 57 47 60 12 9 106 164 139 229 65 129 133 337
146 445 3 21 9 57 13 80 4 22 9 73 11 111 6 134 4 4601 -3 4690 -10 144 -37
275 -85 415 -141 414 -465 771 -863 953 -128 58 -323 115 -449 132 -25 3 -58
9 -75 12 -39 8 -4579 10 -4705 2z m4735 -248 c375 -58 697 -245 914 -531 167
-219 250 -428 288 -720 4 -30 7 -1106 7 -2390 0 -2180 -1 -2342 -18 -2434 -55
-313 -182 -561 -395 -773 -218 -219 -461 -344 -776 -400 -81 -14 -330 -16
-2400 -17 -1270 -1 -2341 2 -2380 5 -191 19 -308 51 -486 132 -134 61 -351
221 -435 319 -193 227 -288 422 -350 716 -2 13 -8 58 -11 100 -9 99 -9 4630
-1 4737 14 168 63 339 144 495 100 194 161 272 338 435 40 38 144 110 221 154
182 104 425 175 635 184 30 1 1083 2 2340 1 1770 0 2303 -3 2365 -13z"/>
<path d="M1655 7489 c-102 -8 -146 -14 -225 -34 -389 -99 -714 -394 -850 -770
-40 -110 -54 -172 -67 -295 -6 -64 -9 -4624 -3 -4749 9 -166 73 -375 161 -524
211 -359 551 -576 964 -616 97 -9 4614 -6 4695 3 446 52 851 372 1005 798 44
122 63 210 73 348 9 106 6 4726 -2 4760 -3 14 -9 45 -12 70 -16 120 -82 294
-157 420 -171 283 -480 502 -797 564 -47 9 -96 19 -110 22 -34 8 -4563 11
-4675 3z m4730 -258 c50 -11 99 -23 109 -26 43 -11 224 -106 276 -145 219
-163 355 -393 397 -665 9 -59 10 -4668 1 -4755 -16 -156 -48 -258 -120 -390
-147 -267 -413 -454 -719 -506 -60 -10 -4616 -12 -4704 -2 -227 26 -417 119
-586 287 -160 161 -255 352 -286 576 -9 65 -9 4677 0 4770 25 263 176 525 396
688 105 77 281 154 396 173 105 17 351 19 2475 18 2268 -2 2275 -2 2365 -23z"/>
<path d="M1362 6629 c-36 -7 -302 -185 -328 -219 -18 -24 -19 -85 -19 -2490 0
-2358 1 -2467 18 -2501 33 -66 -1 -64 872 -64 435 0 828 3 875 7 316 28 556
197 690 486 73 157 126 400 137 627 14 282 7 1131 -11 1220 -2 11 -7 43 -10
70 -30 214 -120 434 -236 580 -50 63 -58 82 -41 101 27 29 76 231 88 361 8
100 9 759 0 883 -32 455 -201 758 -492 879 -149 62 -166 63 -872 65 -353 1
-655 -2 -671 -5z m1323 -242 c132 -33 190 -61 263 -130 117 -112 188 -299 209
-554 4 -49 7 -266 6 -483 0 -482 -10 -554 -100 -734 -56 -112 -51 -134 51
-238 129 -132 192 -277 241 -553 19 -106 27 -1020 12 -1245 -21 -297 -92 -517
-212 -658 -79 -91 -219 -166 -355 -188 -50 -8 -1539 -12 -1541 -4 -1 3 -2
1057 -3 2343 l-2 2338 84 57 83 57 622 -1 c342 -1 631 -4 642 -7z"/>
<path d="M1587 6029 c-43 -7 -82 -39 -94 -78 -5 -14 -9 -339 -8 -721 1 -721 1
-717 41 -757 25 -26 101 -29 599 -27 494 1 512 2 565 22 127 49 207 185 227
387 4 39 7 225 7 415 -1 284 -4 360 -18 428 -40 196 -131 303 -279 328 -51 9
-989 11 -1040 3z m1044 -268 c46 -56 52 -111 53 -486 0 -379 -5 -467 -29 -518
-36 -76 -7 -72 -483 -72 -235 -1 -432 0 -437 2 -7 2 -10 191 -9 551 1 301 2
549 3 552 0 3 197 5 437 5 l437 0 28 -34z"/>
<path d="M1573 4078 c-40 -10 -74 -50 -82 -95 -4 -21 -7 -468 -6 -993 0 -937
1 -956 20 -982 39 -54 37 -53 662 -52 650 1 642 0 746 74 125 90 198 256 214
490 7 95 9 856 3 983 -14 296 -129 497 -318 558 -65 21 -83 22 -639 23 -314 1
-584 -2 -600 -6z m1182 -254 c73 -38 116 -130 132 -279 9 -90 9 -935 0 -1040
-13 -153 -61 -256 -135 -291 -39 -18 -68 -19 -534 -19 l-493 0 -1 815 c0 448
1 820 3 825 2 7 170 10 496 10 478 0 493 -1 532 -21z"/>
<path d="M5217 6634 c-1 -1 -39 -4 -84 -7 -188 -13 -362 -84 -490 -200 -32
-28 -61 -56 -65 -62 -3 -5 -16 -21 -28 -35 -62 -71 -125 -188 -169 -316 -48
-141 -73 -277 -90 -489 -8 -104 -6 -3018 2 -3110 14 -153 37 -275 73 -395 112
-373 352 -595 701 -651 133 -21 1013 -18 1128 4 89 17 197 58 280 106 109 63
246 215 316 353 49 96 112 312 124 428 4 30 8 61 11 69 10 32 18 290 18 637 1
336 -1 373 -17 397 -34 52 -97 74 -160 56 -50 -14 -503 -321 -523 -354 -16
-26 -18 -58 -20 -285 -1 -140 -7 -286 -13 -325 -23 -135 -83 -226 -166 -252
-36 -11 -827 -10 -870 2 -16 4 -49 27 -72 51 -51 53 -80 135 -90 259 -10 116
-9 2923 1 2994 20 140 69 231 143 267 35 16 72 18 433 19 217 0 415 -3 439 -7
102 -18 164 -114 187 -288 4 -30 8 -235 8 -455 2 -373 3 -402 21 -432 30 -51
101 -72 161 -48 17 7 123 73 235 147 112 74 219 143 237 153 64 38 68 61 66
351 -2 273 -10 427 -30 529 -2 11 -7 36 -10 55 -25 147 -90 323 -171 459 -24
41 -159 184 -209 223 -39 29 -188 98 -244 112 -138 35 -187 39 -623 40 -241 1
-439 1 -440 0z m943 -258 c41 -9 108 -32 149 -51 187 -89 324 -314 367 -603 3
-20 7 -48 9 -62 16 -93 28 -599 16 -619 -7 -10 -221 -151 -230 -151 -3 0 -6
118 -6 263 0 257 -10 402 -35 502 -34 133 -124 267 -215 320 -95 56 -114 58
-570 59 -231 0 -442 -3 -470 -6 -175 -21 -301 -139 -363 -338 -45 -148 -45
-147 -46 -1670 -1 -795 2 -1481 7 -1525 24 -239 120 -420 261 -492 87 -44 149
-49 606 -48 363 1 433 4 480 18 134 40 237 148 290 306 42 125 52 218 54 469
l2 192 112 75 c61 41 115 75 120 75 9 0 8 -587 -2 -670 -3 -30 -9 -77 -12
-105 -3 -27 -17 -97 -31 -154 -79 -330 -252 -510 -535 -557 -77 -13 -925 -11
-1010 2 -347 55 -539 329 -575 824 -9 125 -9 3009 0 3124 36 459 191 720 478
807 101 31 169 34 644 33 356 -1 443 -4 505 -18z"/>
</g>
</svg>
